<svg xmlns="http://www.w3.org/2000/svg" viewBox="0 0 64.2 75.3"><linearGradient id="a" gradientUnits="userSpaceOnUse" x1="1.5" y1="37.299" x2="10.406" y2="37.299" gradientTransform="matrix(1 0 0 -1 0 76)"><stop offset="0" stop-color="#db774c"/><stop offset="1" stop-color="#d5527f"/></linearGradient><path d="M6 24.9c-1.2 0-2.3.4-3.2 1.3s-1.3 1.9-1.3 3.1V48c0 1.2.4 2.3 1.3 3.2s1.9 1.3 3.2 1.3c1.2 0 2.3-.4 3.2-1.3.9-.9 1.3-1.9 1.3-3.2V29.3c0-1.2-.4-2.3-1.3-3.1-1-.8-2-1.3-3.2-1.3h0z" fill="url(#a)" stroke="#e0e1e1" stroke-width="3" stroke-miterlimit="10"/><linearGradient id="b" gradientUnits="userSpaceOnUse" x1="12" y1="63.099" x2="52.2" y2="63.099" gradientTransform="matrix(1 0 0 -1 0 76)"><stop offset="0" stop-color="#db774c"/><stop offset="1" stop-color="#d5527f"/></linearGradient><path d="M41.9 8.1L45 2.5c.2-.4.1-.7-.2-.9-.4-.2-.7-.1-.9.3l-3.1 5.7c-2.8-1.2-5.7-1.8-8.7-1.8-3.1 0-6 .6-8.7 1.8l-3.1-5.7c-.2-.3-.5-.4-.9-.3-.3.2-.4.5-.2.9l3.1 5.7c-3.1 1.6-5.6 3.8-7.5 6.7s-2.8 6-2.8 9.4h40.2c0-3.4-.9-6.5-2.8-9.4S45 9.7 41.9 8.1h0zm-18.7 7.4c-.1.1-.2.1-.3.1s-.2 0-.3-.1c-.1-.1-.1-.2-.1-.3s0-.2.1-.3.2-.1.3-.1c.1 0 .2 0 .3.1.1.1.1.2.1.3 0 .1 0 .2-.1.3h0zm18.3 0c-.1.1-.2.1-.3.1s-.2 0-.3-.1-.1-.2-.1-.3 0-.2.1-.3.2-.1.3-.1.2 0 .3.1.1.2.1.3 0 .2-.1.3h0z" fill="url(#b)" stroke="#e0e1e1" stroke-width="3" stroke-miterlimit="10"/><linearGradient id="c" gradientUnits="userSpaceOnUse" x1="12.145" y1="26.199" x2="52.045" y2="26.199" gradientTransform="matrix(1 0 0 -1 0 76)"><stop offset="0" stop-color="#db774c"/><stop offset="1" stop-color="#d5527f"/></linearGradient><path d="M12.1 54.7c0 1.3.5 2.5 1.4 3.4s2.1 1.4 3.4 1.4h3.2v9.9c0 1.2.4 2.3 1.3 3.2.9.9 1.9 1.3 3.1 1.3s2.3-.4 3.2-1.3c.9-.9 1.3-1.9 1.3-3.2v-9.9h6v9.9c0 1.2.4 2.3 1.3 3.2.9.9 1.9 1.3 3.2 1.3 1.2 0 2.3-.4 3.2-1.3s1.3-1.9 1.3-3.2v-9.9h3.3c1.3 0 2.4-.5 3.3-1.4.9-.9 1.4-2.1 1.4-3.4v-29H12.1v29z" fill="url(#c)" stroke="#e0e1e1" stroke-width="3" stroke-miterlimit="10"/><linearGradient id="d" gradientUnits="userSpaceOnUse" x1="53.766" y1="37.299" x2="62.666" y2="37.299" gradientTransform="matrix(1 0 0 -1 0 76)"><stop offset="0" stop-color="#db774c"/><stop offset="1" stop-color="#d5527f"/></linearGradient><path d="M58.2 24.9c-1.2 0-2.3.4-3.1 1.3-.9.9-1.3 1.9-1.3 3.1V48c0 1.2.4 2.3 1.3 3.2.9.9 1.9 1.3 3.1 1.3 1.2 0 2.3-.4 3.2-1.3.9-.9 1.3-1.9 1.3-3.2V29.3c0-1.2-.4-2.3-1.3-3.1-.9-.9-2-1.3-3.2-1.3h0z" fill="url(#d)" stroke="#e0e1e1" stroke-width="3" stroke-miterlimit="10"/></svg>