<svg height="512" viewBox="0 0 300 300" width="512" xmlns="http://www.w3.org/2000/svg"><path fill="#f31f79" d="M150 50C94.861 50 50 94.861 50 150s44.861 100 100 100 100-44.861 100-100S205.139 50 150 50zm53.299 117.943a56.01 56.01 0 000-35.886l23.661-23.661c6.72 12.381 10.54 26.554 10.54 41.604s-3.821 29.223-10.54 41.604zM106.25 150c0-24.121 19.626-43.75 43.75-43.75s43.75 19.629 43.75 43.75-19.626 43.75-43.75 43.75-43.75-19.629-43.75-43.75zm85.354-76.959l-23.661 23.661a55.988 55.988 0 00-35.886 0L108.396 73.04C120.777 66.321 134.95 62.5 150 62.5s29.223 3.821 41.604 10.541zM73.041 108.396l23.661 23.661a55.988 55.988 0 000 35.886l-23.661 23.661C66.321 179.223 62.5 165.05 62.5 150s3.821-29.224 10.541-41.604zm35.355 118.564l23.661-23.661c5.639 1.904 11.669 2.952 17.943 2.952s12.304-1.048 17.943-2.952l23.661 23.661c-12.38 6.719-26.554 10.54-41.604 10.54s-29.223-3.821-41.604-10.54z"/></svg>