<svg xmlns="http://www.w3.org/2000/svg" viewBox="0 0 1000 1000"><path fill="#f31f79" d="M880.7 478.3L431 71.4C402.6 43 15.9 58.1 15.9 58.1S-1.4 496.2 23 499.8l445.5 421.9c28.9 28.9 75.9 28.9 104.8 0l281.2-312.5c39.4-45.1 76-98.5 26.2-130.9zm-670-220c-30.2 30.2-79.2 30.2-109.4 0-30.2-30.2-30.2-79.2 0-109.4 30.2-30.2 79.2-30.2 109.4 0 30.2 30.2 30.2 79.1 0 109.4zm737.2 178.3L565.3 76.1c-26.1-21.4-83.2-18.3-83.2-18.3l421.2 394.7c71.8 45.1 22.5 124.4 22.5 124.4s-327 358-320.8 361.4c28.1 15.1 63.8 7.3 87.5-16.4l256.9-310.2c58-82.3 50.6-126.5-1.5-175.1z"/></svg>