<svg xmlns="http://www.w3.org/2000/svg" width="48" height="40"><path fill-rule="evenodd" fill="#fff" d="M20.962 10.388c-6.076.17-10.577 4.879-10.577 10.986 0 4.58 3.676 8.244 8.28 8.244h1.442c3.157 0 5.716-2.572 5.716-5.744a3.407 3.407 0 00-3.442-3.416 2.324 2.324 0 00-1.66.744l-.617.66c-.563.6-1.502.727-2.154.225a1.593 1.593 0 01-.204-2.341l.403-.438a5.877 5.877 0 014.328-1.903c3.525 0 6.384 2.872 6.384 6.416 0 4.888-3.943 8.851-8.806 8.851h-1.378c-6.288 0-11.386-5.124-11.386-11.444 0-7.677 6.192-13.9 13.829-13.9h19.589C44.736 7.328 48 4.047 48 0H21.201C9.492 0 0 9.541 0 21.309 0 31.632 8.326 40 18.596 40h1.548c8.673 0 15.704-7.066 15.704-15.784v-.807c0-2.269-.578-4.478-1.593-6.31h1.897c3.691 0 6.683-3.007 6.683-6.717l-21.873.006z"/></svg>