<svg height="512" viewBox="0 0 488.471 488.471" width="512" xmlns="http://www.w3.org/2000/svg"><path fill="#f31f79" d="M410.089 0c-22.45 0-43.871 9.66-58.763 26.505L203.999 193.472c20.236 7.573 38.982 18.993 54.889 34.5 16.595 16.172 28.569 35.439 36.377 56.246l166.701-147.089a78.433 78.433 0 0026.505-58.748C488.47 35.166 453.305 0 410.089 0zM60.298 249.736c-37.014 36.09-32.199 73.551-27.965 106.6 4.457 34.673 8.303 64.622-27.727 99.757a15.236 15.236 0 00-4.234 14.251 15.243 15.243 0 009.883 11.091c12.641 4.398 30.902 7.036 52.145 7.036 53.486 0 125.904-16.785 175.171-64.83 23.985-23.389 37.193-54.247 37.193-86.893 0-32.736-13.208-63.638-37.193-87.012-49.7-48.492-127.573-48.462-177.273 0z"/></svg>