<svg xmlns="http://www.w3.org/2000/svg" viewBox="0 0 318 385.6"><path d="M229.4 10h2.6c2 25.8-7.7 45.1-19.7 59-11.7 13.8-27.8 27.3-53.8 25.2-1.7-25.4 8.2-43.3 20.1-57.2 11-12.9 31.3-24.4 50.8-27zM308 278.3v.8c-7.3 22.1-17.7 41.1-30.4 58.6-11.6 16-25.9 37.5-51.3 37.5-21.9 0-36.4-14.1-58.9-14.5-23.8-.4-36.9 11.8-58.6 14.9h-7.4c-16-2.3-28.9-15-38.2-26.3C35.4 315.5 14 272 10 216.4V200c1.7-39.8 21-72.3 46.8-87.9 13.6-8.3 32.2-15.5 53-12.3 8.9 1.4 18 4.5 26 7.4 7.5 3 17 8.1 25.9 7.8 6.1-.2 12.2-3.4 18.3-5.6 17.9-6.5 35.4-13.9 58.6-10.4 27.8 4.2 47.6 16.5 59.7 35.7-23.5 15-42.1 37.6-38.9 76 2.8 35.1 23.2 55.5 48.6 67.6zm0 0" fill-rule="evenodd" clip-rule="evenodd" fill="#777" stroke="#e0e1e2" stroke-width="20" stroke-miterlimit="10"/></svg>